<?xml version="1.0" encoding="iso-8859-1"?>
<!-- Generator: Adobe Illustrator 16.0.0, SVG Export Plug-In . SVG Version: 6.00 Build 0)  -->
<!DOCTYPE svg PUBLIC "-//W3C//DTD SVG 1.1//EN" "http://www.w3.org/Graphics/SVG/1.1/DTD/svg11.dtd">
<svg version="1.1" id="Capa_1" xmlns="http://www.w3.org/2000/svg" xmlns:xlink="http://www.w3.org/1999/xlink" x="0px" y="0px"
	 width="580.113px" height="580.113px" viewBox="0 0 580.113 580.113" style="enable-background:new 0 0 580.113 580.113;"
	 xml:space="preserve">
<g>
	<g>
		<path d="M99.369,389.222c39.786-32.662,52.853-61.169,162.125-61.169c12.748,0,24.137,0.403,34.456,1.138
			c19.938-62.528,78.562-107.945,147.614-107.945c25.648,0,49.835,6.304,71.163,17.381c-11.646-59.878-32.858-109.56-45.38-130.307
			c-19.896-32.956-92.938-54.633-116.696-30.881c-23.752,23.764-91.157,21.389-91.157,21.389s-67.406,2.375-91.157-21.377
			c-23.752-23.751-96.8-2.081-116.696,30.881C33.75,141.289-8.116,247.293,1.382,351.217
			C10.886,455.147,59.583,421.884,99.369,389.222z"/>
		<path d="M518.688,262.146c-21.555-14.229-47.363-22.534-75.123-22.534c-59.603,0-110.252,38.201-128.888,91.439
			c-4.944,14.125-7.662,29.297-7.662,45.111c0,75.416,61.139,136.549,136.55,136.549c75.416,0,136.549-61.139,136.549-136.549
			C580.113,328.505,555.688,286.577,518.688,262.146z M382.181,418.746h37.785c3.378,0,6.119,2.741,6.119,6.119v11.157
			c0,3.378-2.741,6.12-6.119,6.12h-76.066c-3.378,0-5.856-2.735-5.152-6.041c1.413-6.64,3.959-13.011,7.638-19.106
			c4.779-7.919,14.223-18.421,28.329-31.512c10.876-10.135,17.681-17.105,20.496-20.985c0.122-0.172,0.288-0.373,0.392-0.526
			c3.464-5.202,5.202-10.337,5.202-15.423c0-2.974-0.422-5.581-1.267-7.827c-1.193-3.164-5.215-7.209-8.372-8.415
			c-2.154-0.826-4.615-1.236-7.394-1.236c-5.257,0-9.443,1.585-12.552,4.749c-2.154,2.197-3.679,5.41-4.565,9.621
			c-0.006,0.03-0.019,0.061-0.024,0.092c-0.691,3.311-3.514,5.796-6.879,5.459l-12.926-1.291c-3.366-0.337-5.832-3.336-5.189-6.652
			c0.44-2.265,1.04-4.327,1.683-6.341c2.418-7.552,6.206-13.421,11.487-17.467c7.889-6.034,17.748-9.051,29.584-9.051
			c12.969,0,23.158,3.494,30.569,10.489c7.412,6.995,11.114,15.686,11.114,26.09c0,5.918-1.059,11.548-3.183,16.897
			c-2.087,5.257-5.386,10.765-9.865,16.518c-0.079,0.098-0.141,0.195-0.221,0.294c-3.048,3.886-8.543,9.474-16.493,16.763
			c-7.949,7.289-12.986,12.13-15.104,14.522c-1.01,1.132-1.921,2.258-2.747,3.366C377.033,417.043,378.802,418.746,382.181,418.746z
			 M549.349,351.15c0,8.066-1.463,14.854-4.395,20.349c-2.932,5.496-6.646,9.816-11.163,12.956s-9.101,5.215-13.764,6.23
			c-1.757,0.349-3.782,0.637-5.979,0.888c-5.716,0.654-12.864,0.991-21.542,0.991h-11.182c-3.378,0-6.12,2.741-6.12,6.12v21.83
			v15.508c0,3.378-2.741,6.12-6.119,6.12h-14.297c-3.378,0-6.12-2.742-6.12-6.12v-27.92v-91.268c0-3.378,2.742-6.119,6.12-6.119
			h36.463c16.139,0,26.652,0.654,31.555,1.971c0.031,0.006,0.062,0.024,0.098,0.03c5.588,1.48,10.502,4.235,14.737,8.274
			c2.448,2.331,5.808,6.72,7.344,9.73C547.897,336.431,549.349,343.237,549.349,351.15z"/>
		<path d="M517.794,339.674c-2.81-3.108-6.365-5.049-10.668-5.826c-3.17-0.6-9.534-0.894-19.094-0.894h-6.701
			c-3.379,0-6.12,2.742-6.12,6.12v25.056c0,3.378,2.741,6.12,6.12,6.12h8.402c10.459,0,17.454-0.686,20.979-2.062
			c1.731-0.673,3.28-1.536,4.645-2.589c2.094-1.609,4.462-5.006,5.545-7.772c0.129-0.318,0.307-0.667,0.392-0.967
			c0.478-1.671,0.717-3.452,0.717-5.349c0-0.961-0.099-1.867-0.209-2.761C521.343,345.195,520.04,342.154,517.794,339.674z"/>
	</g>
</g>
<g>
</g>
<g>
</g>
<g>
</g>
<g>
</g>
<g>
</g>
<g>
</g>
<g>
</g>
<g>
</g>
<g>
</g>
<g>
</g>
<g>
</g>
<g>
</g>
<g>
</g>
<g>
</g>
<g>
</g>
</svg>
