<?xml version="1.0"?><svg width="500" height="500" xmlns="http://www.w3.org/2000/svg" xmlns:xlink="http://www.w3.org/1999/xlink">
 <title>Help Orb Button</title>
 <defs>
  <linearGradient id="linearGradient3954">
   <stop stop-color="#ffffff" id="stop3956" offset="0"/>
   <stop stop-color="#ffffff" stop-opacity="0" id="stop3958" offset="1"/>
  </linearGradient>
  <linearGradient id="linearGradient3938">
   <stop stop-color="#ffffff" id="stop3940" offset="0"/>
   <stop stop-color="#999999" stop-opacity="0" id="stop3942" offset="1"/>
  </linearGradient>
  <linearGradient id="linearGradient3877">
   <stop stop-color="#0066ff" id="stop3879" offset="0"/>
   <stop stop-color="#214478" id="stop3881" offset="1"/>
  </linearGradient>
  <linearGradient id="linearGradient3833">
   <stop stop-color="#808080" id="stop3835" offset="0"/>
   <stop stop-color="#93a7ac" offset="0.317662" id="stop3853"/>
   <stop stop-color="#ffffff" id="stop3855" offset="0.507448"/>
   <stop stop-color="#999999" offset="0.759592" id="stop3843"/>
   <stop stop-color="#cccccc" id="stop3837" offset="1"/>
  </linearGradient>
  <linearGradient id="linearGradient3823">
   <stop stop-color="#ffffff" id="stop3825" offset="0"/>
   <stop stop-color="#87aade" id="stop3827" offset="1"/>
  </linearGradient>
  <radialGradient gradientUnits="userSpaceOnUse" gradientTransform="matrix(1.6835276,0.02218113,-0.02241968,1.7005288,-994.10457,-578.29185)" r="131.03564" fy="801.96179" fx="749.98822" cy="801.96179" cx="749.98822" id="radialGradient3829" xlink:href="#linearGradient3823"/>
  <linearGradient y2="-13.830689" x2="-16987.011207" y1="36.311142" x1="-160764.974804" id="linearGradient3839" xlink:href="#linearGradient3833"/>
  <radialGradient gradientUnits="userSpaceOnUse" gradientTransform="matrix(0.981971,-5.7401208e-6,5.7080144e-6,0.97647849,-486.48283,18.877038)" r="240" fy="802.36218" fx="750" cy="802.36218" cx="750" id="radialGradient3883" xlink:href="#linearGradient3877"/>
  <radialGradient gradientUnits="userSpaceOnUse" gradientTransform="matrix(-2.6062703,-0.040027,0.02742827,-0.85438294,921.3177,196.09319)" r="105.24194" fy="75.115677" fx="256.04773" cy="75.115677" cx="256.04773" id="radialGradient3946" xlink:href="#linearGradient3938"/>
  <radialGradient gradientTransform="matrix(-3.1568234,0,0,-1.951177,1065.5148,93.420931)" gradientUnits="userSpaceOnUse" r="240" fy="61.007351" fx="256.3291" cy="61.007351" cx="256.3291" id="radialGradient3960" xlink:href="#linearGradient3954"/>
  <radialGradient r="240" fy="61.007351" fx="256.3291" cy="61.007351" cx="256.3291" gradientTransform="matrix(-2.1703161,0,0,-0.8792098,810.66642,48.396324)" gradientUnits="userSpaceOnUse" id="radialGradient4004" xlink:href="#linearGradient3954"/>
  <radialGradient r="240" fy="61.007351" fx="256.3291" cy="61.007351" cx="256.3291" gradientTransform="matrix(-2.1703161,0,0,-0.8792098,810.66642,48.396324)" gradientUnits="userSpaceOnUse" id="radialGradient4006" xlink:href="#linearGradient3954"/>
  <radialGradient r="240" fy="61.007351" fx="256.3291" cy="61.007351" cx="256.3291" gradientTransform="matrix(-2.1703161,0,0,-0.8792098,810.66642,48.396324)" gradientUnits="userSpaceOnUse" id="radialGradient4045" xlink:href="#linearGradient3954"/>
 </defs>
 <metadata id="metadata7">image/svg+xmlHelp Orb Button2011-01-15John Widmark CatadaJohn Widmark CatadaJohn Widmark Catadahelphelp buttonhelp orbglossy help buttonglossy help orbA glossy help orb button.</metadata>
 <g>
  <title>Layer 1</title>
  <path fill="url(#linearGradient3839)" id="path3831" d="m490,250a240,240 0 1 1 -0.002991,-1.141907"/>
  <path fill="#007fff" stroke="#435f9f" stroke-width="0.2" stroke-miterlimit="4" id="path3045" d="m290.262909,389.580994c0,18.392334 -17.548981,33.302307 -39.196732,33.302307c-21.647766,0 -39.196732,-14.909973 -39.196732,-33.302307c0,-18.392334 17.548965,-33.302246 39.196732,-33.302246c21.574966,0 39.093643,14.813538 39.196274,33.143799m-50.402267,-312.778381c-58.858917,0.605164 -113.136971,42.049316 -117.896393,92.138733c-1.308434,6.183838 -1.97644,12.387207 -2.71228,18.658203c33.859665,21.356201 33.859665,21.356201 73.100143,7.359192c0.766998,-23.537476 11.590073,-50.570679 38.846756,-60.583374c31.914108,-11.688293 75.870682,8.708252 76.86235,39.509338c-0.305206,21.272217 -22.351379,35.047974 -39.738403,47.452881c-29.330994,20.987305 -54.321014,50.488342 -53.606461,84.490601c-0.611969,10.367554 0.017197,20.746094 0.383865,31.111267c36.003265,14.740295 36.003265,14.740295 70.037903,0c-6.036987,-32.834351 -0.420288,-50.793335 22.966827,-66.270081c29.029388,-22.272949 62.350006,-45.506531 71.306549,-79.501709c13.759979,-50.664246 -32.995209,-105.081848 -93.179688,-111.540283c-15.213257,-2.71051 -30.83374,-3.016296 -46.37117,-2.824768z"/>
  <path fill="#032d50" id="path2987" d="m250,10c-132.54834,0 -240,107.45166 -240,240c0,132.54834 107.45166,240 240,240c132.54834,0 240,-107.45166 240,-240l0,-1.15625c-0.62851,-132.101135 -107.8974,-238.84375 -240,-238.84375zm-5,62.34375c14.022308,-0.03363 28.06308,0.503845 41.78125,2.9375c62.022705,6.627197 110.211487,62.449646 96.03125,114.4375c-9.230103,34.883301 -43.583984,58.738892 -73.5,81.59375c-24.10144,15.881042 -29.877625,34.307861 -23.65625,68c-35.074158,15.125427 -35.084595,15.125427 -72.1875,0c-0.377899,-10.635925 -1.005661,-21.299133 -0.375,-31.9375c-0.736343,-34.890503 24.991913,-65.151917 55.21875,-86.6875c17.91806,-12.729004 40.654205,-26.859558 40.96875,-48.6875c-1.021942,-31.605713 -46.329895,-52.524902 -79.21875,-40.53125c-28.089172,10.274231 -39.240814,38.003845 -40.03125,62.15625c-40.438995,14.36261 -40.449905,14.351563 -75.34375,-7.5625c0.758308,-6.434814 1.464104,-12.779663 2.8125,-19.125c4.904778,-51.39801 60.843353,-93.941528 121.5,-94.5625c2.001495,-0.024597 3.996811,-0.026428 6,-0.031189l0,-0.000061zm5.53125,286.96875c22.233948,0 40.300446,15.222107 40.40625,34.03125l0,0.15625c0,18.872803 -18.09729,34.15625 -40.40625,34.15625c-22.308945,0 -40.375,-15.283447 -40.375,-34.15625c0,-18.872803 18.066055,-34.1875 40.375,-34.1875z"/>
  <g font-size="360.042908px" font-style="normal" font-weight="normal" fill="#e6e6e6" font-family="Sans" id="text2989"/>
  <path fill="#ffffff" fill-opacity="0.60355" stroke-width="0.2" stroke-miterlimit="4" opacity="0" id="path3903" d="m369.884552,157.010208a116.720627,75.648331 0 1 1 -0.001099,-0.35994"/>
  <path fill="url(#radialGradient4045)" id="path3952" d="m241.53125,80.0625c-44.510559,0.138306 -90.295959,23.424927 -109.75,64.5c-4.858971,11.627289 -7.821953,24.619263 -7.96875,37c-0.003639,0.030823 0.003609,0.062927 0,0.09375c-0.253723,2.169312 -0.427803,4.356018 -0.5,6.5625c6.60498,5.182404 13.916092,9.955017 21.875,14.25c11.191345,3.092194 20.965836,-0.363098 44.84375,-8.84375c0.790436,-24.152405 11.942078,-51.882019 40.03125,-62.15625c32.888855,-11.993652 78.196808,8.925507 79.21875,40.53125c-0.314545,21.827942 -23.05069,35.958466 -40.96875,48.6875c-2.803406,1.997314 -5.572754,4.074585 -8.28125,6.21875c45.648926,-1.79425 86.269836,-15.785004 114.46875,-37.03125c9.048279,-31.012177 -6.648315,-65.028992 -31.875,-83.65625c-27.066528,-21.389191 -63.071655,-26.349884 -96.78125,-26.125c-1.43222,-0.043945 -2.876678,-0.035706 -4.3125,-0.03125z"/>
  <path fill="url(#radialGradient4004)" id="path4002" d="m250,20.8125c-91.126984,0 -165,48.398071 -165,108.125c0,23.251434 11.199333,44.803162 30.25,62.4375c0.585442,-4.838257 1.230057,-9.637817 2.25,-14.4375c4.904778,-51.39801 60.843353,-93.941559 121.5,-94.5625c2.001495,-0.0242 3.996811,-0.026245 6,-0.03125c14.022308,-0.0336 28.06308,0.503845 41.78125,2.9375c58.805695,6.283447 105.152893,56.779358 97.71875,106.3125c19.199524,-17.676208 30.5,-39.30542 30.5,-62.65625l0,-0.5c-0.432129,-59.525391 -74.179443,-107.625 -165,-107.625zm-0.5,117.25c-6.666092,0.081146 -13.270844,1.15744 -19.4375,3.40625c-28.089172,10.274231 -39.240814,38.003845 -40.03125,62.15625c-23.877914,8.480652 -33.652405,11.935944 -44.84375,8.84375c28.500397,15.380096 65.01265,24.625 104.8125,24.625c3.368286,0 6.712952,-0.057068 10.03125,-0.1875c2.708496,-2.144165 5.477844,-4.221436 8.28125,-6.21875c17.91806,-12.729034 40.654205,-26.859558 40.96875,-48.6875c-0.830322,-25.679657 -30.894867,-44.289093 -59.78125,-43.9375z"/>
 </g>
</svg>