<svg xmlns="http://www.w3.org/2000/svg" xmlns:xlink="http://www.w3.org/1999/xlink" version="1.1" x="0px" y="0px" viewBox="0 0 90 112.5" enable-background="new 0 0 90 90" xml:space="preserve"><path d="M48.9,69.4h-7.7c-7.9,0-14.4-6.5-14.4-14.4V34.4h3.8V55c0,5.9,4.8,10.6,10.6,10.6h7.7c5.9,0,10.6-4.8,10.6-10.6V34.7h3.8V55  C63.3,63,56.8,69.4,48.9,69.4z"/><path d="M45,80.3L45,80.3c-1.4,0-2.5-1.1-2.5-2.5v-8.4c0-1.4,1.1-2.5,2.5-2.5l0,0c1.4,0,2.5,1.1,2.5,2.5v8.4  C47.5,79.1,46.4,80.3,45,80.3z"/><rect x="34.5" y="77.5" width="21.1" height="3.7"/><path d="M46.7,8.9h-3.5c-5.9,0-10.8,4.8-10.8,10.8v0.4h9.5v3.2h-9.5v2.5h9.5v3.2h-9.5v2.5h9.5v3.2h-9.5v2.5h9.5v3.2h-9.5v12.3  c0,5.9,4.8,10.8,10.8,10.8h3.5c5.9,0,10.8-4.8,10.8-10.8V19.7C57.5,13.7,52.7,8.9,46.7,8.9z"/><text x="0" y="105" fill="#000000" font-size="5px" font-weight="bold" font-family="'Helvetica Neue', Helvetica, Arial-Unicode, Arial, Sans-serif">Created by Alexchan</text><text x="0" y="110" fill="#000000" font-size="5px" font-weight="bold" font-family="'Helvetica Neue', Helvetica, Arial-Unicode, Arial, Sans-serif">from the Noun Project</text></svg>